<svg width="24" height="24" viewBox="0 0 24 24" fill="none" xmlns="http://www.w3.org/2000/svg">
<path d="M6.15137 12.9434C8.38368 12.9434 10.2012 14.7507 10.2012 16.9717C10.2011 19.1926 8.38362 21 6.15137 21C3.91923 20.9999 2.10263 19.1925 2.10254 16.9717C2.10254 14.7508 3.91917 12.9435 6.15137 12.9434ZM14.8779 17.7051C15.4866 17.7053 15.9824 18.1981 15.9824 18.8037C15.9824 19.4093 15.4866 19.9022 14.8779 19.9023H13.5156C12.9068 19.9023 12.4111 19.4094 12.4111 18.8037C12.4112 18.198 12.9068 17.7051 13.5156 17.7051H14.8779ZM7.95312 15.2461C7.75786 15.0508 7.44136 15.0508 7.24609 15.2461L6.09961 16.3926L4.95312 15.2461C4.75786 15.0508 4.44136 15.0508 4.24609 15.2461C4.05083 15.4414 4.05083 15.7579 4.24609 15.9531L5.39258 17.0996L4.24609 18.2461C4.05083 18.4414 4.05083 18.7579 4.24609 18.9531C4.44136 19.1483 4.75788 19.1484 4.95312 18.9531L6.09961 17.8066L7.24609 18.9531C7.44136 19.1483 7.75788 19.1484 7.95312 18.9531C8.14837 18.7579 8.14835 18.4414 7.95312 18.2461L6.80664 17.0996L7.95312 15.9531C8.14837 15.7579 8.14835 15.4414 7.95312 15.2461ZM20.7686 14.042C21.3773 14.0421 21.873 14.535 21.873 15.1406C21.873 15.7463 21.3773 16.2391 20.7686 16.2393H13.5156C12.9068 16.2393 12.4111 15.7464 12.4111 15.1406C12.4111 14.5349 12.9068 14.042 13.5156 14.042H20.7686ZM6.14941 3C8.38152 3.00018 10.1982 4.80755 10.1982 7.02832C10.1982 9.24917 8.38157 11.0565 6.14941 11.0566C3.9171 11.0566 2.09961 9.24928 2.09961 7.02832C2.0997 4.80744 3.91716 3 6.14941 3ZM14.875 7.76172C15.4837 7.76172 15.9793 8.25481 15.9795 8.86035C15.9795 9.46608 15.4838 9.95996 14.875 9.95996H13.5127C12.9039 9.95996 12.4082 9.46608 12.4082 8.86035C12.4084 8.25481 12.904 7.76172 13.5127 7.76172H14.875ZM8.13574 5.83789C7.99209 5.6951 7.52832 5.69506 7.38477 5.83789L5.77051 7.44336L4.90918 6.58594C4.76551 6.44334 4.48305 6.45157 4.27637 6.65723C4.07015 6.86299 4.13305 7.25548 4.27637 7.39844L5.62695 8.6875C5.7 8.75881 5.79398 8.79481 5.8877 8.79492C5.98295 8.79492 6.07763 8.75892 6.14941 8.6875L8.13574 6.52734H8.13379C8.27699 6.38415 8.27921 5.98061 8.13574 5.83789ZM20.7656 4.09863C21.3743 4.09863 21.8699 4.59169 21.8701 5.19727C21.8701 5.803 21.3745 6.29688 20.7656 6.29688H13.5127C12.9039 6.29688 12.4082 5.803 12.4082 5.19727C12.4084 4.59169 12.904 4.09863 13.5127 4.09863H20.7656Z" fill="#2D0F00"/>
</svg>
