<svg width="22" height="22" viewBox="0 0 22 22" fill="none" xmlns="http://www.w3.org/2000/svg">
<path d="M13 1.75C14.9068 1.75 16.2615 1.75159 17.2892 1.88976C18.2952 2.02503 18.8749 2.27869 19.2981 2.7019C19.7852 3.18904 19.9973 3.56666 20.1147 4.23984C20.2471 4.9986 20.25 6.08092 20.25 8C20.25 8.41422 20.5858 8.75 21 8.75C21.4142 8.75 21.75 8.41422 21.75 8L21.75 7.90369C21.7501 6.1045 21.7501 4.88571 21.5924 3.98199C21.417 2.97665 21.0432 2.32568 20.3588 1.64124C19.6104 0.892881 18.6615 0.560764 17.489 0.403136C16.3498 0.249973 14.8942 0.249985 13.0564 0.25H13C12.5858 0.25 12.25 0.585788 12.25 1C12.25 1.41421 12.5858 1.75 13 1.75Z" fill="#2D0F00"/>
<path d="M1.00001 13.25C1.41422 13.25 1.75001 13.5858 1.75001 14C1.75001 15.9191 1.75289 17.0014 1.88529 17.7602C2.00275 18.4333 2.21477 18.811 2.70191 19.2981C3.12512 19.7213 3.70476 19.975 4.71085 20.1102C5.73852 20.2484 7.09318 20.25 9 20.25C9.41422 20.25 9.75001 20.5858 9.75001 21C9.75001 21.4142 9.41422 21.75 9 21.75H8.94359C7.10583 21.75 5.6502 21.75 4.51098 21.5969C3.33856 21.4392 2.38961 21.1071 1.64125 20.3588C0.956812 19.6743 0.583043 19.0233 0.407616 18.018C0.249922 17.1143 0.249954 15.8955 0.250002 14.0964L0.250005 14C0.250005 13.5858 0.585792 13.25 1.00001 13.25Z" fill="#2D0F00"/>
<path d="M21 13.25C21.4142 13.25 21.75 13.5858 21.75 14L21.75 14.0963C21.7501 15.8955 21.7501 17.1143 21.5924 18.018C21.417 19.0233 21.0432 19.6743 20.3588 20.3588C19.6104 21.1071 18.6615 21.4392 17.489 21.5969C16.3498 21.75 14.8942 21.75 13.0564 21.75H13C12.5858 21.75 12.25 21.4142 12.25 21C12.25 20.5858 12.5858 20.25 13 20.25C14.9068 20.25 16.2615 20.2484 17.2892 20.1102C18.2952 19.975 18.8749 19.7213 19.2981 19.2981C19.7852 18.811 19.9973 18.4333 20.1147 17.7602C20.2471 17.0014 20.25 15.9191 20.25 14C20.25 13.5858 20.5858 13.25 21 13.25Z" fill="#2D0F00"/>
<path d="M8.94359 0.25H9.00001C9.41422 0.25 9.75001 0.585788 9.75001 1C9.75001 1.41421 9.41422 1.75 9.00001 1.75C7.09319 1.75 5.73852 1.75159 4.71085 1.88976C3.70476 2.02503 3.12512 2.27869 2.70191 2.7019C2.21477 3.18904 2.00275 3.56666 1.88529 4.23984C1.75289 4.9986 1.75001 6.08092 1.75001 8C1.75001 8.41422 1.41422 8.75 1.00001 8.75C0.585792 8.75 0.250005 8.41422 0.250005 8L0.250002 7.90369C0.249954 6.10453 0.249922 4.8857 0.407616 3.98199C0.583043 2.97665 0.956811 2.32568 1.64125 1.64124C2.38961 0.892881 3.33856 0.560764 4.51098 0.403136C5.65019 0.249973 7.10584 0.249985 8.94359 0.25Z" fill="#2D0F00"/>
<path d="M11 9.75C10.3096 9.75 9.75001 10.3096 9.75001 11C9.75001 11.6904 10.3096 12.25 11 12.25C11.6904 12.25 12.25 11.6904 12.25 11C12.25 10.3096 11.6904 9.75 11 9.75Z" fill="#2D0F00"/>
<path fill-rule="evenodd" clip-rule="evenodd" d="M4.89243 13.0598C4.29748 12.3697 4.00001 12.0246 4.00001 11C4.00001 9.97539 4.29748 9.63033 4.89243 8.94021C6.08038 7.56223 8.07269 6 11 6C13.9273 6 15.9196 7.56222 17.1076 8.94021C17.7025 9.63033 18 9.97539 18 11C18 12.0246 17.7025 12.3697 17.1076 13.0598C15.9196 14.4378 13.9273 16 11 16C8.07269 16 6.08038 14.4378 4.89243 13.0598ZM8.25001 11C8.25001 9.48122 9.48122 8.25 11 8.25C12.5188 8.25 13.75 9.48122 13.75 11C13.75 12.5188 12.5188 13.75 11 13.75C9.48122 13.75 8.25001 12.5188 8.25001 11Z" fill="#2D0F00"/>
</svg>
