<svg width="22" height="22" viewBox="0 0 22 22" fill="none" xmlns="http://www.w3.org/2000/svg">
<circle cx="11" cy="11" r="11" fill="white"/>
<g clip-path="url(#clip0_3_304)">
<path d="M12.6935 5.06498C12.1479 4.15998 10.836 4.15998 10.291 5.06498L8.31476 8.44936C9.85084 9.21618 11.0946 10.3141 12.0461 11.7432C12.9977 13.1722 13.5309 14.7432 13.646 16.4562H12.2579C12.143 14.9881 11.6713 13.6453 10.8428 12.4278C10.0143 11.2103 8.93832 10.2787 7.61476 9.63311L5.78601 12.7956C6.52913 13.1289 7.14676 13.62 7.6389 14.269C8.13104 14.9179 8.43737 15.6451 8.55789 16.4506H5.37101C5.28881 16.4449 5.22763 16.4061 5.18747 16.3342C5.14732 16.2622 5.14641 16.1898 5.18476 16.1169L6.06789 14.6156C5.91837 14.4908 5.75886 14.3805 5.58935 14.2846C5.41985 14.1887 5.24311 14.1088 5.05914 14.045L4.18476 15.5462C3.99323 15.8747 3.94715 16.2225 4.04653 16.5895C4.14591 16.9566 4.36115 17.2336 4.69226 17.4206C4.7959 17.4789 4.9052 17.5234 5.02017 17.5539C5.13513 17.5843 5.25208 17.5999 5.37101 17.6006H9.73539C9.81777 16.5835 9.64489 15.6118 9.21672 14.6856C8.78856 13.7593 8.1604 12.9981 7.33226 12.4019L8.02601 11.2006C9.07142 11.9185 9.87009 12.8484 10.422 13.9901C10.974 15.1319 11.2065 16.3354 11.1198 17.6006H14.8166C14.9041 15.6837 14.5079 13.8727 13.628 12.1675C12.748 10.4622 11.5015 9.08996 9.88851 8.05061L11.291 5.64748C11.3235 5.59306 11.3704 5.55793 11.4318 5.5421C11.4932 5.52627 11.5512 5.53431 11.606 5.56623C11.7654 5.65373 17.6998 16.0087 17.811 16.1287C17.831 16.1645 17.8406 16.2028 17.84 16.2437C17.8393 16.2847 17.8284 16.3227 17.8073 16.3577C17.7862 16.3928 17.7577 16.4202 17.7218 16.4399C17.686 16.4597 17.6476 16.469 17.6066 16.4681H16.1773C16.1954 16.8506 16.1954 17.2325 16.1773 17.6125H17.6129C17.8599 17.6138 18.0906 17.5532 18.3051 17.4305C18.5195 17.3079 18.6887 17.1397 18.8128 16.9261C18.9368 16.7125 18.999 16.4821 18.9992 16.2351C18.9995 15.9881 18.9378 15.7576 18.8141 15.5437L12.6935 5.06498Z" fill="#362D59"/>
</g>
<defs>
<clipPath id="clip0_3_304">
<rect width="15" height="15" fill="white" transform="translate(4 3.5)"/>
</clipPath>
</defs>
</svg>
