<svg width="16" height="16" viewBox="0 0 16 16" fill="none" xmlns="http://www.w3.org/2000/svg">
<g clip-path="url(#clip0_3_340)">
<path d="M8.42857 6L7 8H9L7.57143 10" stroke="#7C7C7C" stroke-width="1.5" stroke-linecap="round" stroke-linejoin="round"/>
<path d="M2.66675 7.99996C2.66675 5.4858 2.66675 4.22872 3.4478 3.44767C4.22885 2.66663 5.48592 2.66663 8.00008 2.66663C10.5142 2.66663 11.7713 2.66663 12.5524 3.44767C13.3334 4.22872 13.3334 5.4858 13.3334 7.99996C13.3334 10.5141 13.3334 11.7712 12.5524 12.5522C11.7713 13.3333 10.5142 13.3333 8.00008 13.3333C5.48592 13.3333 4.22885 13.3333 3.4478 12.5522C2.66675 11.7712 2.66675 10.5141 2.66675 7.99996Z" stroke="#7C7C7C" stroke-width="1.5" stroke-linecap="round" stroke-linejoin="round"/>
<path d="M2.66675 8H1.33341" stroke="#7C7C7C" stroke-width="1.5" stroke-linecap="round" stroke-linejoin="round"/>
<path d="M14.6667 8H13.3334" stroke="#7C7C7C" stroke-width="1.5" stroke-linecap="round" stroke-linejoin="round"/>
<path d="M2.66675 6L1.33341 6" stroke="#7C7C7C" stroke-width="1.5" stroke-linecap="round" stroke-linejoin="round"/>
<path d="M14.6667 6H13.3334" stroke="#7C7C7C" stroke-width="1.5" stroke-linecap="round" stroke-linejoin="round"/>
<path d="M2.66675 10H1.33341" stroke="#7C7C7C" stroke-width="1.5" stroke-linecap="round" stroke-linejoin="round"/>
<path d="M14.6667 10H13.3334" stroke="#7C7C7C" stroke-width="1.5" stroke-linecap="round" stroke-linejoin="round"/>
<path d="M8 13.3334L8 14.6667" stroke="#7C7C7C" stroke-width="1.5" stroke-linecap="round" stroke-linejoin="round"/>
<path d="M8 1.33337L8 2.66671" stroke="#7C7C7C" stroke-width="1.5" stroke-linecap="round" stroke-linejoin="round"/>
<path d="M6 13.3334L6 14.6667" stroke="#7C7C7C" stroke-width="1.5" stroke-linecap="round" stroke-linejoin="round"/>
<path d="M6 1.33337L6 2.66671" stroke="#7C7C7C" stroke-width="1.5" stroke-linecap="round" stroke-linejoin="round"/>
<path d="M10 13.3334L10 14.6667" stroke="#7C7C7C" stroke-width="1.5" stroke-linecap="round" stroke-linejoin="round"/>
<path d="M10 1.33337L10 2.66671" stroke="#7C7C7C" stroke-width="1.5" stroke-linecap="round" stroke-linejoin="round"/>
</g>
<defs>
<clipPath id="clip0_3_340">
<rect width="16" height="16" fill="white"/>
</clipPath>
</defs>
</svg>
