<svg width="24" height="24" viewBox="0 0 24 24" fill="none" xmlns="http://www.w3.org/2000/svg">
<path d="M11.6367 6C16.3311 6 20.1367 9.8056 20.1367 14.5C20.1367 19.1944 16.3311 23 11.6367 23C6.9423 23 3.13672 19.1944 3.13672 14.5C3.13674 9.80559 6.94231 6 11.6367 6ZM10.6035 13.3164C10.1341 13.3164 9.75293 13.6976 9.75293 14.167C9.75309 14.6363 10.1342 15.0166 10.6035 15.0166H12.8701C13.3394 15.0166 13.7196 14.6363 13.7197 14.167C13.7197 13.6976 13.3395 13.3164 12.8701 13.3164H10.6035ZM9.46973 8.5C8.84395 8.50026 8.33691 9.26147 8.33691 10.2002C8.33697 11.1388 8.84399 11.9001 9.46973 11.9004C10.0956 11.9004 10.6035 11.139 10.6035 10.2002C10.6035 9.26131 10.0956 8.5 9.46973 8.5ZM14.0029 8.5C13.3772 8.50037 12.8701 9.26154 12.8701 10.2002C12.8702 11.1388 13.3772 11.9 14.0029 11.9004C14.6288 11.9004 15.1367 11.139 15.1367 10.2002C15.1367 9.26131 14.6289 8.5 14.0029 8.5ZM20.1514 1.16895C20.3767 0.94365 20.7425 0.943665 20.9678 1.16895C21.1931 1.39425 21.1931 1.76005 20.9678 1.98535L19.4521 3.5L20.9678 5.01562C21.1928 5.24094 21.193 5.60584 20.9678 5.83105C20.7425 6.05636 20.3767 6.05636 20.1514 5.83105L18.6367 4.31641L17.1221 5.83105C16.8968 6.05636 16.531 6.05636 16.3057 5.83105C16.0805 5.60583 16.0806 5.24094 16.3057 5.01562L17.8213 3.5L16.3057 1.98535C16.0804 1.76005 16.0804 1.39425 16.3057 1.16895C16.531 0.943661 16.8968 0.943649 17.1221 1.16895L18.6367 2.68457L20.1514 1.16895ZM7.31348 1.16895C7.55468 0.943643 7.94629 0.943643 8.1875 1.16895C8.42865 1.39425 8.42869 1.76007 8.1875 1.98535L5.07227 5.72363C4.83106 5.94894 4.43945 5.94894 4.19824 5.72363L2.53418 4.08594C2.29337 3.86065 2.29322 3.49571 2.53418 3.27051C2.77539 3.04521 3.167 3.04521 3.4082 3.27051L4.63574 4.5L7.31348 1.16895Z" fill="#2D0F00"/>
</svg>
