<svg width="16" height="15" viewBox="0 0 16 15" fill="none" xmlns="http://www.w3.org/2000/svg">
<g clip-path="url(#clip0_3_501)">
<path fill-rule="evenodd" clip-rule="evenodd" d="M8.41384 5.19084C7.13108 5.19084 6.0912 6.23072 6.0912 7.51348C6.0912 8.79623 7.13108 9.83611 8.41384 9.83611C9.69659 9.83611 10.7365 8.79623 10.7365 7.51348C10.7365 6.23072 9.69659 5.19084 8.41384 5.19084ZM7.02025 7.51348C7.02025 6.74382 7.64418 6.11989 8.41384 6.11989C9.18349 6.11989 9.80742 6.74382 9.80742 7.51348C9.80742 8.28313 9.18349 8.90706 8.41384 8.90706C7.64418 8.90706 7.02025 8.28313 7.02025 7.51348Z" fill="#020203"/>
<path fill-rule="evenodd" clip-rule="evenodd" d="M8.41384 2.09399C5.61792 2.09399 3.73468 3.76889 2.64166 5.1889L2.62195 5.2145C2.37476 5.53554 2.14709 5.83122 1.99264 6.18084C1.82724 6.55523 1.75562 6.96328 1.75562 7.51348C1.75562 8.06367 1.82724 8.47172 1.99264 8.84611C2.14709 9.19573 2.37476 9.49141 2.62196 9.81246L2.64166 9.83805C3.73468 11.2581 5.61792 12.933 8.41384 12.933C11.2098 12.933 13.093 11.2581 14.186 9.83805L14.2057 9.81247C14.4529 9.49142 14.6806 9.19574 14.835 8.84611C15.0004 8.47172 15.0721 8.06367 15.0721 7.51348C15.0721 6.96328 15.0004 6.55523 14.835 6.18084C14.6806 5.83121 14.4529 5.53553 14.2057 5.21449L14.186 5.1889C13.093 3.76889 11.2098 2.09399 8.41384 2.09399ZM3.37788 5.75558C4.38709 4.44445 6.02949 3.02305 8.41384 3.02305C10.7982 3.02305 12.4406 4.44445 13.4498 5.75558C13.7214 6.10849 13.8806 6.31937 13.9852 6.55627C14.083 6.77768 14.143 7.04829 14.143 7.51348C14.143 7.97866 14.083 8.24928 13.9852 8.47068C13.8806 8.70759 13.7214 8.91846 13.4498 9.27137C12.4406 10.5825 10.7982 12.0039 8.41384 12.0039C6.02949 12.0039 4.38709 10.5825 3.37788 9.27137C3.10623 8.91846 2.94712 8.70758 2.84246 8.47068C2.74465 8.24928 2.68467 7.97866 2.68467 7.51348C2.68467 7.04829 2.74465 6.77768 2.84246 6.55627C2.94712 6.31937 3.10623 6.10849 3.37788 5.75558Z" fill="#020203"/>
</g>
<defs>
<clipPath id="clip0_3_501">
<rect width="14.8649" height="14.8649" fill="white" transform="translate(0.981445 0.0810547)"/>
</clipPath>
</defs>
</svg>
