<svg width="16" height="20" viewBox="0 0 16 20" fill="none" xmlns="http://www.w3.org/2000/svg">
<path d="M1.66953 7.91436L4.73167 3.77133C6.71103 1.09327 7.70071 -0.245751 8.62407 0.0372134C9.54743 0.320178 9.54743 1.96249 9.54743 5.24712V5.55682C9.54743 6.74151 9.54743 7.33386 9.92597 7.70541L9.946 7.72466C10.3327 8.08836 10.9492 8.08836 12.1822 8.08836C14.4011 8.08836 15.5106 8.08836 15.8855 8.76131C15.8917 8.77245 15.8977 8.78368 15.9036 8.795C16.2576 9.47836 15.6152 10.3475 14.3304 12.0857L11.2683 16.2287C9.2889 18.9067 8.2992 20.2458 7.37584 19.9628C6.45248 19.6798 6.4525 18.0375 6.45255 14.7528L6.45255 14.4433C6.45257 13.2585 6.45258 12.6662 6.07404 12.2946L6.05401 12.2754C5.6673 11.9117 5.05079 11.9117 3.81775 11.9117C1.59888 11.9117 0.489447 11.9117 0.114497 11.2387C0.108289 11.2276 0.102253 11.2164 0.0963932 11.205C-0.257559 10.5217 0.384803 9.65258 1.66953 7.91436Z" fill="#2D0F00"/>
</svg>
