<svg width="1436" height="1203" viewBox="0 0 1436 1203" fill="none" xmlns="http://www.w3.org/2000/svg">
<g clip-path="url(#clip0_3_94)">
<rect width="1436" height="1203" fill="white"/>
<g filter="url(#filter0_n_3_94)">
<path d="M1325.88 1184.62C1434.52 1172.12 1532.72 1250.05 1545.22 1358.69L1679.54 2525.8C1692.04 2634.44 1614.11 2732.65 1505.47 2745.15L1325.88 1184.62Z" fill="url(#paint0_linear_3_94)"/>
<path d="M1285.77 1121.02C1392.51 1097.23 1498.31 1164.47 1522.1 1271.2L1777.68 2417.89C1801.47 2524.63 1734.23 2630.43 1627.5 2654.22L1285.77 1121.02Z" fill="url(#paint1_linear_3_94)"/>
<path d="M1239.22 1061.7C1342.89 1026.88 1455.14 1082.69 1489.96 1186.36L1864 2300.06C1898.82 2403.72 1843 2515.97 1739.34 2550.79L1239.22 1061.7Z" fill="url(#paint2_linear_3_94)"/>
<path d="M1186.45 1007.45C1285.9 961.993 1403.38 1005.76 1448.84 1105.22L1937.24 2173.72C1982.7 2273.17 1938.93 2390.65 1839.48 2436.11L1186.45 1007.45Z" fill="url(#paint3_linear_3_94)"/>
<path d="M1128.73 959.555C1222.89 903.947 1344.3 935.199 1399.91 1029.36L1997.33 2040.95C2052.93 2135.11 2021.68 2256.52 1927.52 2312.12L1128.73 959.555Z" fill="url(#paint4_linear_3_94)"/>
<path d="M1066.81 917.49C1154.64 852.345 1278.65 870.735 1343.79 958.565L2043.68 1902.16C2108.82 1989.99 2090.43 2114.01 2002.6 2179.15L1066.81 917.49Z" fill="url(#paint5_linear_3_94)"/>
<path d="M1000.14 882.807C1080.67 808.839 1205.93 814.166 1279.89 894.704L2074.58 1759.99C2148.55 1840.52 2143.22 1965.78 2062.69 2039.74L1000.14 882.807Z" fill="url(#paint6_linear_3_94)"/>
<path d="M931.037 854.443C1003.4 772.459 1128.53 764.664 1210.51 837.031L2091.28 1614.49C2173.27 1686.86 2181.06 1811.99 2108.69 1893.97L931.037 854.443Z" fill="url(#paint7_linear_3_94)"/>
<path d="M858.859 833.79C922.261 744.69 1045.89 723.858 1134.99 787.26L2092.2 1468.4C2181.3 1531.8 2202.13 1655.42 2138.73 1744.52L858.859 833.79Z" fill="url(#paint8_linear_3_94)"/>
<path d="M785.142 820.751C838.883 725.513 959.654 691.872 1054.89 745.613L2078.06 1322.96C2173.3 1376.71 2206.94 1497.48 2153.2 1592.71L785.142 820.751Z" fill="url(#paint9_linear_3_94)"/>
<path d="M709.658 815.564C753.148 715.236 869.735 669.158 970.063 712.647L2047.99 1179.89C2148.32 1223.38 2194.4 1339.97 2150.91 1440.3L709.658 815.564Z" fill="url(#paint10_linear_3_94)"/>
<path d="M634.889 818.608C667.653 714.282 778.786 656.27 883.111 689.034L2003.98 1041.05C2108.3 1073.81 2166.31 1184.94 2133.55 1289.27L634.889 818.608Z" fill="url(#paint11_linear_3_94)"/>
<path d="M561.054 829.012C582.733 721.836 687.191 652.526 794.368 674.205L1945.89 907.125C2053.06 928.804 2122.37 1033.26 2100.69 1140.44L561.054 829.012Z" fill="url(#paint12_linear_3_94)"/>
<path d="M488.742 847.581C499.1 738.719 595.747 658.866 704.608 669.224L1874.14 780.499C1983 790.857 2062.86 887.503 2052.5 996.365L488.742 847.581Z" fill="url(#paint13_linear_3_94)"/>
<path d="M417.98 873.408C416.902 764.057 504.675 674.535 614.026 673.457L1788.78 661.874C1898.13 660.796 1987.65 748.569 1988.73 857.92L417.98 873.408Z" fill="url(#paint14_linear_3_94)"/>
<path d="M350.852 906.806C338.35 798.173 416.28 699.974 524.912 687.473L1692.04 553.155C1800.67 540.654 1898.87 618.583 1911.37 727.216L350.852 906.806Z" fill="url(#paint15_linear_3_94)"/>
<path d="M287.239 946.914C263.45 840.182 330.689 734.373 437.421 710.584L1584.11 455.005C1690.84 431.217 1796.65 498.455 1820.44 605.188L287.239 946.914Z" fill="url(#paint16_linear_3_94)"/>
<path d="M227.922 993.458C193.105 889.793 248.918 777.532 352.583 742.715L1466.27 368.677C1569.93 333.861 1682.2 389.673 1717.01 493.338L227.922 993.458Z" fill="url(#paint17_linear_3_94)"/>
<path d="M174.289 1045.13C128.829 945.68 172.6 828.204 272.053 782.745L1340.56 294.336C1440.01 248.876 1557.49 292.647 1602.95 392.1L174.289 1045.13Z" fill="url(#paint18_linear_3_94)"/>
<path d="M126.388 1102.86C70.7817 1008.7 102.033 887.293 196.189 831.687L1207.79 234.265C1301.94 178.659 1423.35 209.91 1478.96 304.067L126.388 1102.86Z" fill="url(#paint19_linear_3_94)"/>
<path d="M84.9319 1163.69C19.787 1075.86 38.1768 951.853 126.007 886.708L1069.61 186.825C1157.44 121.68 1281.45 140.07 1346.59 227.9L84.9319 1163.69Z" fill="url(#paint20_linear_3_94)"/>
<path d="M49.1692 1229.73C-24.7984 1149.2 -19.472 1023.95 61.066 949.978L926.348 155.287C1006.89 81.3194 1132.14 86.6457 1206.11 167.184L49.1692 1229.73Z" fill="url(#paint21_linear_3_94)"/>
<path d="M20.7854 1298.82C-61.1978 1226.45 -68.9931 1101.33 3.37407 1019.35L780.836 138.576C853.203 56.5931 978.329 48.7978 1060.31 121.165L20.7854 1298.82Z" fill="url(#paint22_linear_3_94)"/>
<path d="M0.154907 1371.01C-88.9449 1307.61 -109.777 1183.98 -46.375 1094.88L634.754 137.684C698.156 48.584 821.783 27.7518 910.882 91.1538L0.154907 1371.01Z" fill="url(#paint23_linear_3_94)"/>
<path d="M-12.8937 1444.74C-108.132 1391 -141.772 1270.23 -88.0315 1174.99L489.314 151.828C543.055 56.5899 663.826 22.9498 759.065 76.6906L-12.8937 1444.74Z" fill="url(#paint24_linear_3_94)"/>
<path d="M-17.4722 1519.16C-117.807 1475.67 -163.887 1359.07 -120.395 1258.74L346.842 180.826C390.334 80.4918 506.928 34.4114 607.263 77.9029L-17.4722 1519.16Z" fill="url(#paint25_linear_3_94)"/>
<path d="M-14.4153 1593.9C-118.747 1561.14 -176.762 1450 -143.996 1345.67L208.009 224.822C240.775 120.49 351.914 62.475 456.245 95.2405L-14.4153 1593.9Z" fill="url(#paint26_linear_3_94)"/>
<path d="M-4.03406 1667.74C-111.217 1646.06 -180.53 1541.6 -158.85 1434.42L74.0683 282.908C95.7484 175.725 200.212 106.411 307.395 128.091L-4.03406 1667.74Z" fill="url(#paint27_linear_3_94)"/>
<path d="M14.5437 1740.06C-94.3154 1729.7 -174.167 1633.06 -163.809 1524.2L-52.5324 354.643C-42.175 245.784 54.4692 165.933 163.328 176.29L14.5437 1740.06Z" fill="url(#paint28_linear_3_94)"/>
<path d="M40.8505 1812.52C-68.4958 1813.6 -158.013 1725.83 -159.091 1616.49L-170.674 441.721C-171.753 332.375 -83.9839 242.858 25.3624 241.78L40.8505 1812.52Z" fill="url(#paint29_linear_3_94)"/>
<path d="M72.5317 1880.12C-36.1007 1892.62 -134.3 1814.69 -146.801 1706.06L-281.119 538.927C-293.62 430.294 -215.691 332.096 -107.059 319.594L72.5317 1880.12Z" fill="url(#paint30_linear_3_94)"/>
<path d="M111.558 1943.13C4.82529 1966.92 -100.983 1899.68 -124.772 1792.95L-380.351 646.256C-404.14 539.524 -336.901 433.716 -230.169 409.927L111.558 1943.13Z" fill="url(#paint31_linear_3_94)"/>
<g filter="url(#filter1_nf_3_94)">
<ellipse cx="701.5" cy="1475.5" rx="675.5" ry="675.5" transform="rotate(180 701.5 1475.5)" fill="#FFDAC7"/>
</g>
</g>
</g>
<defs>
<filter id="filter0_n_3_94" x="-1379" y="-573" width="4204.13" height="4209.88" filterUnits="userSpaceOnUse" color-interpolation-filters="sRGB">
<feFlood flood-opacity="0" result="BackgroundImageFix"/>
<feBlend mode="normal" in="SourceGraphic" in2="BackgroundImageFix" result="shape"/>
<feTurbulence type="fractalNoise" baseFrequency="0.88819533586502075 0.88819533586502075" stitchTiles="stitch" numOctaves="3" result="noise" seed="4413" />
<feColorMatrix in="noise" type="luminanceToAlpha" result="alphaNoise" />
<feComponentTransfer in="alphaNoise" result="coloredNoise1">
<feFuncA type="discrete" tableValues="0 0 0 0 0 0 0 1 1 1 1 1 1 1 1 1 1 1 1 1 1 1 1 1 1 1 1 1 1 1 1 1 1 1 1 1 1 1 1 1 1 1 1 0 0 0 0 0 0 0 0 0 0 0 0 0 0 0 0 0 0 0 0 0 0 0 0 0 0 0 0 0 0 0 0 0 0 0 0 0 0 0 0 0 0 0 0 0 0 0 0 0 0 0 0 0 0 0 0 0 "/>
</feComponentTransfer>
<feComposite operator="in" in2="shape" in="coloredNoise1" result="noise1Clipped" />
<feFlood flood-color="#FFFFFF" result="color1Flood" />
<feComposite operator="in" in2="noise1Clipped" in="color1Flood" result="color1" />
<feMerge result="effect1_noise_3_94">
<feMergeNode in="shape" />
<feMergeNode in="color1" />
</feMerge>
</filter>
<filter id="filter1_nf_3_94" x="-52.42" y="721.58" width="1507.84" height="1507.84" filterUnits="userSpaceOnUse" color-interpolation-filters="sRGB">
<feFlood flood-opacity="0" result="BackgroundImageFix"/>
<feBlend mode="normal" in="SourceGraphic" in2="BackgroundImageFix" result="shape"/>
<feTurbulence type="fractalNoise" baseFrequency="0.88819533586502075 0.88819533586502075" stitchTiles="stitch" numOctaves="3" result="noise" seed="7611" />
<feColorMatrix in="noise" type="luminanceToAlpha" result="alphaNoise" />
<feComponentTransfer in="alphaNoise" result="coloredNoise1">
<feFuncA type="discrete" tableValues="0 0 0 0 0 0 0 1 1 1 1 1 1 1 1 1 1 1 1 1 1 1 1 1 1 1 1 1 1 1 1 1 1 1 1 1 1 1 1 1 1 1 1 0 0 0 0 0 0 0 0 0 0 0 0 0 0 0 0 0 0 0 0 0 0 0 0 0 0 0 0 0 0 0 0 0 0 0 0 0 0 0 0 0 0 0 0 0 0 0 0 0 0 0 0 0 0 0 0 0 "/>
</feComponentTransfer>
<feComposite operator="in" in2="shape" in="coloredNoise1" result="noise1Clipped" />
<feFlood flood-color="#FFFFFF" result="color1Flood" />
<feComposite operator="in" in2="noise1Clipped" in="color1Flood" result="color1" />
<feMerge result="effect1_noise_3_94">
<feMergeNode in="shape" />
<feMergeNode in="color1" />
</feMerge>
<feGaussianBlur stdDeviation="39.21" result="effect2_foregroundBlur_3_94"/>
</filter>
<linearGradient id="paint0_linear_3_94" x1="1763.35" y1="1246.94" x2="1264.69" y2="2660.19" gradientUnits="userSpaceOnUse">
<stop offset="0.17" stop-color="#FFFBF6"/>
<stop offset="0.27" stop-color="#FFD9C6"/>
<stop offset="0.37" stop-color="#FFDDCC"/>
<stop offset="0.58" stop-color="#FFBB97"/>
<stop offset="0.74" stop-color="white"/>
</linearGradient>
<linearGradient id="paint1_linear_3_94" x1="1727.35" y1="1137.27" x2="1379.14" y2="2594.89" gradientUnits="userSpaceOnUse">
<stop offset="0.17" stop-color="#FFFBF6"/>
<stop offset="0.27" stop-color="#FFD9C6"/>
<stop offset="0.37" stop-color="#FFDDCC"/>
<stop offset="0.58" stop-color="#FFBB97"/>
<stop offset="0.74" stop-color="white"/>
</linearGradient>
<linearGradient id="paint2_linear_3_94" x1="1680.08" y1="1031.7" x2="1486.13" y2="2517.74" gradientUnits="userSpaceOnUse">
<stop offset="0.17" stop-color="#FFFBF6"/>
<stop offset="0.27" stop-color="#FFD9C6"/>
<stop offset="0.37" stop-color="#FFDDCC"/>
<stop offset="0.58" stop-color="#FFBB97"/>
<stop offset="0.74" stop-color="white"/>
</linearGradient>
<linearGradient id="paint3_linear_3_94" x1="1621.76" y1="931.539" x2="1584.2" y2="2429.71" gradientUnits="userSpaceOnUse">
<stop offset="0.17" stop-color="#FFFBF6"/>
<stop offset="0.27" stop-color="#FFD9C6"/>
<stop offset="0.37" stop-color="#FFDDCC"/>
<stop offset="0.58" stop-color="#FFBB97"/>
<stop offset="0.74" stop-color="white"/>
</linearGradient>
<linearGradient id="paint4_linear_3_94" x1="1553.73" y1="838.55" x2="1672.99" y2="2332.44" gradientUnits="userSpaceOnUse">
<stop offset="0.17" stop-color="#FFFBF6"/>
<stop offset="0.27" stop-color="#FFD9C6"/>
<stop offset="0.37" stop-color="#FFDDCC"/>
<stop offset="0.58" stop-color="#FFBB97"/>
<stop offset="0.74" stop-color="white"/>
</linearGradient>
<linearGradient id="paint5_linear_3_94" x1="1476.82" y1="752.725" x2="1751.59" y2="2225.97" gradientUnits="userSpaceOnUse">
<stop offset="0.17" stop-color="#FFFBF6"/>
<stop offset="0.27" stop-color="#FFD9C6"/>
<stop offset="0.37" stop-color="#FFDDCC"/>
<stop offset="0.58" stop-color="#FFBB97"/>
<stop offset="0.74" stop-color="white"/>
</linearGradient>
<linearGradient id="paint6_linear_3_94" x1="1390.68" y1="676.091" x2="1817.92" y2="2112.54" gradientUnits="userSpaceOnUse">
<stop offset="0.17" stop-color="#FFFBF6"/>
<stop offset="0.27" stop-color="#FFD9C6"/>
<stop offset="0.37" stop-color="#FFDDCC"/>
<stop offset="0.58" stop-color="#FFBB97"/>
<stop offset="0.74" stop-color="white"/>
</linearGradient>
<linearGradient id="paint7_linear_3_94" x1="1297.84" y1="608.027" x2="1872.91" y2="1991.95" gradientUnits="userSpaceOnUse">
<stop offset="0.17" stop-color="#FFFBF6"/>
<stop offset="0.27" stop-color="#FFD9C6"/>
<stop offset="0.37" stop-color="#FFDDCC"/>
<stop offset="0.58" stop-color="#FFBB97"/>
<stop offset="0.74" stop-color="white"/>
</linearGradient>
<linearGradient id="paint8_linear_3_94" x1="1197.9" y1="550.378" x2="1914.49" y2="1866.61" gradientUnits="userSpaceOnUse">
<stop offset="0.17" stop-color="#FFFBF6"/>
<stop offset="0.27" stop-color="#FFD9C6"/>
<stop offset="0.37" stop-color="#FFDDCC"/>
<stop offset="0.58" stop-color="#FFBB97"/>
<stop offset="0.74" stop-color="white"/>
</linearGradient>
<linearGradient id="paint9_linear_3_94" x1="1092.7" y1="503.455" x2="1942.94" y2="1737.57" gradientUnits="userSpaceOnUse">
<stop offset="0.17" stop-color="#FFFBF6"/>
<stop offset="0.27" stop-color="#FFD9C6"/>
<stop offset="0.37" stop-color="#FFDDCC"/>
<stop offset="0.58" stop-color="#FFBB97"/>
<stop offset="0.74" stop-color="white"/>
</linearGradient>
<linearGradient id="paint10_linear_3_94" x1="982.356" y1="467.879" x2="1956.9" y2="1606.37" gradientUnits="userSpaceOnUse">
<stop offset="0.17" stop-color="#FFFBF6"/>
<stop offset="0.27" stop-color="#FFD9C6"/>
<stop offset="0.37" stop-color="#FFDDCC"/>
<stop offset="0.58" stop-color="#FFBB97"/>
<stop offset="0.74" stop-color="white"/>
</linearGradient>
<linearGradient id="paint11_linear_3_94" x1="869.75" y1="444.32" x2="1957.97" y2="1474.7" gradientUnits="userSpaceOnUse">
<stop offset="0.17" stop-color="#FFFBF6"/>
<stop offset="0.27" stop-color="#FFD9C6"/>
<stop offset="0.37" stop-color="#FFDDCC"/>
<stop offset="0.58" stop-color="#FFBB97"/>
<stop offset="0.74" stop-color="white"/>
</linearGradient>
<linearGradient id="paint12_linear_3_94" x1="755.503" y1="432.232" x2="1945.45" y2="1343.22" gradientUnits="userSpaceOnUse">
<stop offset="0.17" stop-color="#FFFBF6"/>
<stop offset="0.27" stop-color="#FFD9C6"/>
<stop offset="0.37" stop-color="#FFDDCC"/>
<stop offset="0.58" stop-color="#FFBB97"/>
<stop offset="0.74" stop-color="white"/>
</linearGradient>
<linearGradient id="paint13_linear_3_94" x1="640.653" y1="432.626" x2="1919.34" y2="1214.22" gradientUnits="userSpaceOnUse">
<stop offset="0.17" stop-color="#FFFBF6"/>
<stop offset="0.27" stop-color="#FFD9C6"/>
<stop offset="0.37" stop-color="#FFDDCC"/>
<stop offset="0.58" stop-color="#FFBB97"/>
<stop offset="0.74" stop-color="white"/>
</linearGradient>
<linearGradient id="paint14_linear_3_94" x1="525.684" y1="444.833" x2="1879.08" y2="1088.48" gradientUnits="userSpaceOnUse">
<stop offset="0.17" stop-color="#FFFBF6"/>
<stop offset="0.27" stop-color="#FFD9C6"/>
<stop offset="0.37" stop-color="#FFDDCC"/>
<stop offset="0.58" stop-color="#FFBB97"/>
<stop offset="0.74" stop-color="white"/>
</linearGradient>
<linearGradient id="paint15_linear_3_94" x1="413.171" y1="469.349" x2="1826.4" y2="968.028" gradientUnits="userSpaceOnUse">
<stop offset="0.17" stop-color="#FFFBF6"/>
<stop offset="0.27" stop-color="#FFD9C6"/>
<stop offset="0.37" stop-color="#FFDDCC"/>
<stop offset="0.58" stop-color="#FFBB97"/>
<stop offset="0.74" stop-color="white"/>
</linearGradient>
<linearGradient id="paint16_linear_3_94" x1="303.488" y1="505.333" x2="1761.11" y2="853.55" gradientUnits="userSpaceOnUse">
<stop offset="0.17" stop-color="#FFFBF6"/>
<stop offset="0.27" stop-color="#FFD9C6"/>
<stop offset="0.37" stop-color="#FFDDCC"/>
<stop offset="0.58" stop-color="#FFBB97"/>
<stop offset="0.74" stop-color="white"/>
</linearGradient>
<linearGradient id="paint17_linear_3_94" x1="197.92" y1="552.582" x2="1683.97" y2="746.512" gradientUnits="userSpaceOnUse">
<stop offset="0.17" stop-color="#FFFBF6"/>
<stop offset="0.27" stop-color="#FFD9C6"/>
<stop offset="0.37" stop-color="#FFDDCC"/>
<stop offset="0.58" stop-color="#FFBB97"/>
<stop offset="0.74" stop-color="white"/>
</linearGradient>
<linearGradient id="paint18_linear_3_94" x1="98.3755" y1="609.826" x2="1596.55" y2="647.383" gradientUnits="userSpaceOnUse">
<stop offset="0.17" stop-color="#FFFBF6"/>
<stop offset="0.27" stop-color="#FFD9C6"/>
<stop offset="0.37" stop-color="#FFDDCC"/>
<stop offset="0.58" stop-color="#FFBB97"/>
<stop offset="0.74" stop-color="white"/>
</linearGradient>
<linearGradient id="paint19_linear_3_94" x1="5.38896" y1="677.87" x2="1499.28" y2="558.623" gradientUnits="userSpaceOnUse">
<stop offset="0.17" stop-color="#FFFBF6"/>
<stop offset="0.27" stop-color="#FFD9C6"/>
<stop offset="0.37" stop-color="#FFDDCC"/>
<stop offset="0.58" stop-color="#FFBB97"/>
<stop offset="0.74" stop-color="white"/>
</linearGradient>
<linearGradient id="paint20_linear_3_94" x1="-79.833" y1="753.676" x2="1393.41" y2="478.914" gradientUnits="userSpaceOnUse">
<stop offset="0.17" stop-color="#FFFBF6"/>
<stop offset="0.27" stop-color="#FFD9C6"/>
<stop offset="0.37" stop-color="#FFDDCC"/>
<stop offset="0.58" stop-color="#FFBB97"/>
<stop offset="0.74" stop-color="white"/>
</linearGradient>
<linearGradient id="paint21_linear_3_94" x1="-157.547" y1="839.191" x2="1278.91" y2="411.95" gradientUnits="userSpaceOnUse">
<stop offset="0.17" stop-color="#FFFBF6"/>
<stop offset="0.27" stop-color="#FFD9C6"/>
<stop offset="0.37" stop-color="#FFDDCC"/>
<stop offset="0.58" stop-color="#FFBB97"/>
<stop offset="0.74" stop-color="white"/>
</linearGradient>
<linearGradient id="paint22_linear_3_94" x1="-225.63" y1="932.017" x2="1158.29" y2="356.948" gradientUnits="userSpaceOnUse">
<stop offset="0.17" stop-color="#FFFBF6"/>
<stop offset="0.27" stop-color="#FFD9C6"/>
<stop offset="0.37" stop-color="#FFDDCC"/>
<stop offset="0.58" stop-color="#FFBB97"/>
<stop offset="0.74" stop-color="white"/>
</linearGradient>
<linearGradient id="paint23_linear_3_94" x1="-283.258" y1="1031.97" x2="1032.96" y2="315.385" gradientUnits="userSpaceOnUse">
<stop offset="0.17" stop-color="#FFFBF6"/>
<stop offset="0.27" stop-color="#FFD9C6"/>
<stop offset="0.37" stop-color="#FFDDCC"/>
<stop offset="0.58" stop-color="#FFBB97"/>
<stop offset="0.74" stop-color="white"/>
</linearGradient>
<linearGradient id="paint24_linear_3_94" x1="-330.19" y1="1137.18" x2="903.917" y2="286.941" gradientUnits="userSpaceOnUse">
<stop offset="0.17" stop-color="#FFFBF6"/>
<stop offset="0.27" stop-color="#FFD9C6"/>
<stop offset="0.37" stop-color="#FFDDCC"/>
<stop offset="0.58" stop-color="#FFBB97"/>
<stop offset="0.74" stop-color="white"/>
</linearGradient>
<linearGradient id="paint25_linear_3_94" x1="-365.18" y1="1246.45" x2="773.301" y2="271.864" gradientUnits="userSpaceOnUse">
<stop offset="0.17" stop-color="#FFFBF6"/>
<stop offset="0.27" stop-color="#FFD9C6"/>
<stop offset="0.37" stop-color="#FFDDCC"/>
<stop offset="0.58" stop-color="#FFBB97"/>
<stop offset="0.74" stop-color="white"/>
</linearGradient>
<linearGradient id="paint26_linear_3_94" x1="-388.726" y1="1359.04" x2="641.648" y2="270.782" gradientUnits="userSpaceOnUse">
<stop offset="0.17" stop-color="#FFFBF6"/>
<stop offset="0.27" stop-color="#FFD9C6"/>
<stop offset="0.37" stop-color="#FFDDCC"/>
<stop offset="0.58" stop-color="#FFBB97"/>
<stop offset="0.74" stop-color="white"/>
</linearGradient>
<linearGradient id="paint27_linear_3_94" x1="-400.837" y1="1473.29" x2="510.144" y2="283.303" gradientUnits="userSpaceOnUse">
<stop offset="0.17" stop-color="#FFFBF6"/>
<stop offset="0.27" stop-color="#FFD9C6"/>
<stop offset="0.37" stop-color="#FFDDCC"/>
<stop offset="0.58" stop-color="#FFBB97"/>
<stop offset="0.74" stop-color="white"/>
</linearGradient>
<linearGradient id="paint28_linear_3_94" x1="-400.401" y1="1588.15" x2="381.208" y2="309.472" gradientUnits="userSpaceOnUse">
<stop offset="0.17" stop-color="#FFFBF6"/>
<stop offset="0.27" stop-color="#FFD9C6"/>
<stop offset="0.37" stop-color="#FFDDCC"/>
<stop offset="0.58" stop-color="#FFBB97"/>
<stop offset="0.74" stop-color="white"/>
</linearGradient>
<linearGradient id="paint29_linear_3_94" x1="-387.704" y1="1704.82" x2="255.956" y2="351.45" gradientUnits="userSpaceOnUse">
<stop offset="0.17" stop-color="#FFFBF6"/>
<stop offset="0.27" stop-color="#FFD9C6"/>
<stop offset="0.37" stop-color="#FFDDCC"/>
<stop offset="0.58" stop-color="#FFBB97"/>
<stop offset="0.74" stop-color="white"/>
</linearGradient>
<linearGradient id="paint30_linear_3_94" x1="-364.925" y1="1817.8" x2="133.754" y2="404.568" gradientUnits="userSpaceOnUse">
<stop offset="0.17" stop-color="#FFFBF6"/>
<stop offset="0.27" stop-color="#FFD9C6"/>
<stop offset="0.37" stop-color="#FFDDCC"/>
<stop offset="0.58" stop-color="#FFBB97"/>
<stop offset="0.74" stop-color="white"/>
</linearGradient>
<linearGradient id="paint31_linear_3_94" x1="-330.023" y1="1926.88" x2="18.1933" y2="469.259" gradientUnits="userSpaceOnUse">
<stop offset="0.17" stop-color="#FFFBF6"/>
<stop offset="0.27" stop-color="#FFD9C6"/>
<stop offset="0.37" stop-color="#FFDDCC"/>
<stop offset="0.58" stop-color="#FFBB97"/>
<stop offset="0.74" stop-color="white"/>
</linearGradient>
<clipPath id="clip0_3_94">
<rect width="1436" height="1203" fill="white"/>
</clipPath>
</defs>
</svg>
