<svg width="39" height="38" viewBox="0 0 39 38" fill="none" xmlns="http://www.w3.org/2000/svg">
<g clip-path="url(#clip0_3_908)">
<path d="M37.7052 9.79486C37.4905 8.98622 37.0671 8.24816 36.4775 7.65461C35.8878 7.06107 35.1525 6.63286 34.3453 6.41286C31.3829 5.61328 19.5 5.61328 19.5 5.61328C19.5 5.61328 7.61708 5.61328 4.65308 6.41286C3.84623 6.63324 3.11138 7.06161 2.52204 7.65512C1.9327 8.24863 1.50952 8.98648 1.29483 9.79486C0.5 12.7779 0.5 19.0004 0.5 19.0004C0.5 19.0004 0.5 25.2229 1.29483 28.2059C1.50951 29.0145 1.93288 29.7526 2.52254 30.3461C3.11219 30.9397 3.84745 31.3679 4.65467 31.5879C7.61708 32.3874 19.5 32.3874 19.5 32.3874C19.5 32.3874 31.3829 32.3874 34.3469 31.5879C35.1542 31.368 35.8895 30.9399 36.4792 30.3463C37.0689 29.7527 37.4922 29.0146 37.7068 28.2059C38.5 25.2229 38.5 19.0004 38.5 19.0004C38.5 19.0004 38.5 12.7779 37.7052 9.79486ZM15.6129 24.6497V13.351L25.5452 19.0004L15.6129 24.6497Z" fill="#232323"/>
</g>
<defs>
<clipPath id="clip0_3_908">
<rect width="38" height="38" fill="white" transform="translate(0.5)"/>
</clipPath>
</defs>
</svg>
