<svg width="39" height="38" viewBox="0 0 39 38" fill="none" xmlns="http://www.w3.org/2000/svg">
<g clip-path="url(#clip0_3_959)">
<path d="M7.55927 6.66227C8.74044 7.62177 9.18377 7.54894 11.4036 7.40011L32.3274 6.14452C32.7707 6.14452 32.4018 5.70119 32.2545 5.62836L28.7775 3.11561C28.1125 2.59944 27.2243 2.00727 25.5238 2.15452L5.26502 3.63336C4.52719 3.70619 4.37835 4.07669 4.67285 4.37119L7.55927 6.66227ZM8.81485 11.5389V33.5536C8.81485 34.7364 9.40544 35.1797 10.737 35.1053L33.7318 33.7753C35.0634 33.7024 35.2122 32.8886 35.2122 31.9275V10.0601C35.2122 9.10061 34.8433 8.58286 34.0279 8.65569L9.9976 10.0601C9.11094 10.1345 8.81485 10.5794 8.81485 11.5389ZM31.5151 12.7185C31.6624 13.3835 31.5151 14.0485 30.8501 14.1245L29.7418 14.3462V30.5975C28.7791 31.1153 27.8924 31.4114 27.153 31.4114C25.9687 31.4114 25.6726 31.0409 24.7859 29.9341L17.539 18.5563V29.5636L19.8317 30.0829C19.8317 30.0829 19.8317 31.4129 17.9824 31.4129L12.8809 31.7074C12.7336 31.4129 12.8809 30.6735 13.3986 30.5263L14.7286 30.1574V15.6018L12.884 15.4529C12.7352 14.7879 13.1057 13.8284 14.1396 13.754L19.6116 13.3851L27.1546 24.9102V14.7135L25.2309 14.4934C25.0836 13.6796 25.6742 13.089 26.4136 13.0162L31.5151 12.7185ZM3.56452 1.63836L24.6387 0.0866906C27.2259 -0.134976 27.8924 0.0122739 29.5185 1.19502L36.2461 5.92286C37.3544 6.73511 37.7249 6.95677 37.7249 7.84344V33.7753C37.7249 35.3998 37.1344 36.3624 35.0649 36.5081L10.5898 37.9869C9.0381 38.0614 8.2971 37.8397 7.48327 36.8042L2.52902 30.3759C1.64235 29.1931 1.27344 28.308 1.27344 27.2725V4.22236C1.27344 2.89394 1.8656 1.78402 3.56452 1.63836Z" fill="#232323"/>
</g>
<defs>
<clipPath id="clip0_3_959">
<rect width="38" height="38" fill="white" transform="translate(0.5)"/>
</clipPath>
</defs>
</svg>
