<svg width="39" height="38" viewBox="0 0 39 38" fill="none" xmlns="http://www.w3.org/2000/svg">
<path d="M6.52824 28.8965C5.73808 28.8981 4.96163 28.6943 4.2782 28.3057C3.59477 27.917 3.02886 27.3576 2.63829 26.6845C2.2537 26.0162 2.06189 25.2579 2.08342 24.4909C2.10494 23.724 2.33899 22.9772 2.76049 22.3306L10.7712 10.0037C11.1812 9.34122 11.7633 8.79723 12.4581 8.42732C13.1528 8.05741 13.9353 7.87483 14.7256 7.89824C15.5154 7.91678 16.2859 8.1406 16.9583 8.54678C17.6308 8.95296 18.1811 9.52693 18.5528 10.2099C19.2996 11.5936 19.2062 13.2584 18.3118 14.5573L10.3062 26.8841C9.9002 27.504 9.3411 28.0135 8.68068 28.3652C8.02027 28.717 7.27991 28.8997 6.52824 28.8965Z" fill="#232323"/>
<path d="M20.2662 28.8959C18.6505 28.8959 17.1638 28.0494 16.3831 26.689C15.9994 26.0225 15.808 25.2662 15.8295 24.5012C15.851 23.7362 16.0846 22.9914 16.5053 22.3466L24.5007 10.0481C24.9047 9.37626 25.4847 8.82259 26.1807 8.44447C26.8766 8.06636 27.6631 7.87757 28.4586 7.8977C30.0879 7.93262 31.5644 8.8257 32.3112 10.2227C33.0528 11.6197 32.9442 13.2944 32.0226 14.59L24.0289 26.8886C23.6242 27.5058 23.0673 28.0133 22.4097 28.3641C21.7521 28.7149 21.015 28.8978 20.2662 28.8959Z" fill="#232323"/>
<path d="M33.702 29.0026C35.9798 29.0026 37.8262 27.2312 37.8262 25.0461C37.8262 22.861 35.9798 21.0896 33.702 21.0896C31.4243 21.0896 29.5779 22.861 29.5779 25.0461C29.5779 27.2312 31.4243 29.0026 33.702 29.0026Z" fill="#232323"/>
</svg>
