<svg width="24" height="24" viewBox="0 0 24 24" fill="none" xmlns="http://www.w3.org/2000/svg">
<path d="M12.832 4.5C13.8361 4.5 14.8006 4.89589 15.4727 5.58789C15.7446 5.86386 15.9601 6.18047 16.1201 6.52441C16.1962 6.68823 16.3603 6.78805 16.5322 6.78809C16.5962 6.78809 16.6607 6.77605 16.7207 6.74805C16.9485 6.64395 17.0483 6.37145 16.9443 6.14355C16.8644 5.96769 16.768 5.80354 16.6641 5.63965C18.4001 5.64765 19.8442 6.81645 20.1562 8.35645C19.7682 8.23245 19.3642 8.16016 18.9521 8.16016C18.7042 8.16028 18.5 8.36429 18.5 8.61621C18.5001 8.86404 18.7043 9.06824 18.9521 9.06836C19.4801 9.06836 19.9962 9.20404 20.4521 9.45996C21.4082 9.99996 22 11.0162 22 12.1162C21.9999 13.3001 21.2964 14.3605 20.2725 14.8564C20.3605 14.5244 20.4043 14.1839 20.4043 13.8359C20.4043 11.656 18.6283 9.87988 16.4482 9.87988C16.2483 9.87989 16.0562 9.89574 15.8643 9.92773C15.8243 9.93173 15.7805 9.93629 15.7246 9.94824C15.2606 10.0322 14.82 10.2002 14.416 10.4482C14.2002 10.5803 14.1367 10.8604 14.2646 11.0723C14.3967 11.288 14.6767 11.3516 14.8926 11.2236C15.1964 11.0318 15.5323 10.9079 15.9121 10.8359C15.9401 10.8359 15.9643 10.8321 15.9883 10.8281C16.1403 10.8041 16.2923 10.7881 16.4482 10.7881C18.1283 10.7881 19.4961 12.156 19.4961 13.8359C19.4961 14.3798 19.3606 14.8838 19.0967 15.3438C18.6887 16.0557 18.0086 16.5762 17.2207 16.7803C17.2088 16.7843 17.2004 16.7919 17.1885 16.7959C17.1605 16.8079 17.1364 16.82 17.1084 16.8359C17.0844 16.8519 17.0561 16.8638 17.0361 16.8838C17.0161 16.9038 17.0005 16.9242 16.9805 16.9482C16.9646 16.9721 16.9446 16.9918 16.9326 17.0195C16.9207 17.0434 16.9123 17.0717 16.9043 17.0996C16.8963 17.1276 16.8888 17.1605 16.8848 17.1885C16.8847 17.2002 16.88 17.2119 16.8799 17.2236C16.8799 17.7476 16.9201 18.752 17.1641 19.5H15.9287C15.6047 18.84 14.6765 17.208 13.1006 16.376C13.6444 16.036 14.1122 15.5481 14.4521 14.9443C14.6522 14.5883 15.0085 14.0924 15.5605 13.7764C15.5605 13.7764 15.5605 13.776 15.5605 13.7725C15.7926 13.6485 16.0646 13.5801 16.3486 13.5801C17.0363 13.5802 17.6198 13.9679 17.6201 14.4316C17.6201 14.6796 17.8203 14.8837 18.0723 14.8838C18.3243 14.8838 18.5283 14.6796 18.5283 14.4316C18.5281 13.4599 17.5524 12.672 16.3486 12.6719C15.9086 12.6719 15.4841 12.7765 15.1201 12.9805C15.1162 12.9805 15.1123 12.9804 15.1084 12.9844C15.0164 13.0324 14.9363 13.0885 14.8604 13.1484C14.8445 13.1564 14.84 13.1716 14.8281 13.1836C14.2641 13.5876 13.8802 14.104 13.6602 14.5C13.2321 15.256 12.5522 15.7842 11.7842 15.9482C11.7682 15.9522 11.7522 15.9521 11.7402 15.9561C11.5163 16.004 11.2803 16.0283 11.0283 16.0283C9.79239 16.0283 8.66394 15.4203 8.00391 14.3965C7.64791 13.8525 7.45606 13.212 7.45605 12.54C7.45605 12.0881 7.66015 11.6482 7.99609 11.3682C8.4041 11.0322 8.9845 10.8643 9.72852 10.8643C9.7484 10.8642 9.77603 10.8565 9.7959 10.8564C10.1079 11.3164 10.6283 11.8115 11.2842 11.8115C11.4081 11.8115 11.5399 11.7919 11.6758 11.752C11.9156 11.68 12.0521 11.4283 11.9805 11.1885C11.9085 10.9445 11.656 10.8079 11.416 10.8799C11.1041 10.9757 10.812 10.6883 10.624 10.4443C10.888 10.1643 11.0918 9.72795 11.0918 9.04395C11.0918 8.79197 10.8877 8.58789 10.6357 8.58789C10.384 8.58813 10.1807 8.79212 10.1807 9.04395C10.1807 9.66395 9.96803 9.85983 9.83203 9.92383C9.82807 9.92383 9.82044 9.92402 9.81641 9.92773C9.81256 9.92773 9.81215 9.93135 9.80859 9.93164C9.77293 9.94749 9.74078 9.95207 9.72852 9.95215C8.76849 9.95215 7.99203 10.196 7.41602 10.668C6.87204 11.12 6.54787 11.82 6.54785 12.5439C6.54785 13.2199 6.70799 13.8681 7 14.4521C6.55609 14.6441 6.06816 14.748 5.57227 14.748C3.60438 14.748 2.00026 13.1882 2 11.2725C2 9.7245 3.06392 8.34786 4.58789 7.92383C4.59177 7.91995 4.59205 7.91993 4.5957 7.91992C4.6477 7.90392 4.69623 7.87575 4.74023 7.84375C4.7521 7.83575 4.76054 7.82435 4.77246 7.81641C4.80046 7.78841 4.82766 7.75963 4.84766 7.72363C4.85963 7.70764 4.86399 7.68786 4.87598 7.67188C4.88397 7.65193 4.89639 7.63609 4.90039 7.62012C5.33639 6.20015 6.74804 5.20805 8.33203 5.20801C8.86395 5.20801 9.3838 5.32039 9.84375 5.52832C9.85175 5.53232 9.86016 5.52823 9.86816 5.53223C9.91614 5.55221 9.96463 5.56436 10.0166 5.56836C10.0404 5.56827 10.0641 5.55965 10.0879 5.55566C10.1199 5.55166 10.1565 5.55204 10.1885 5.54004C10.2243 5.52805 10.2563 5.50434 10.2881 5.48047C10.304 5.46854 10.3239 5.464 10.3398 5.44824C11.0078 4.83629 11.8921 4.50005 12.832 4.5ZM5.59961 10.0439C5.51556 9.80816 5.25638 9.68858 5.02051 9.77637C4.07649 10.1204 3.59252 11.1684 3.93652 12.1084C4.00465 12.2921 4.17643 12.4082 4.36426 12.4082C4.41619 12.4082 4.46858 12.3959 4.52051 12.3799C4.75622 12.2917 4.87594 12.0318 4.79199 11.7959C4.61607 11.3239 4.86007 10.7999 5.33203 10.6279C5.56804 10.5439 5.68761 10.2799 5.59961 10.0439ZM8.48438 6.56836C8.00436 6.48836 7.52394 6.59979 7.12793 6.88379C6.73593 7.16779 6.47248 7.58837 6.39648 8.06836C6.35266 8.31226 6.52064 8.54791 6.76855 8.58789C6.79623 8.59185 6.81999 8.59566 6.84375 8.5957C7.05975 8.5957 7.25599 8.43582 7.29199 8.21582C7.33202 7.97588 7.4602 7.76399 7.66016 7.62402C7.8561 7.48007 8.09601 7.42394 8.33594 7.46387C8.58794 7.50387 8.81635 7.3398 8.86035 7.0918C8.9002 6.84398 8.73215 6.60848 8.48438 6.56836ZM12.6006 5.86426C12.3486 5.86426 12.1445 6.06441 12.1445 6.31641C12.1448 7.32009 12.9602 8.13553 13.9639 8.13574C14.2159 8.13574 14.4199 7.93169 14.4199 7.67969C14.4198 7.42783 14.2158 7.22363 13.9639 7.22363C13.4642 7.22342 13.0569 6.82008 13.0566 6.31641C13.0566 6.06453 12.8524 5.86445 12.6006 5.86426Z" fill="#2D0F00"/>
</svg>
