<svg width="24" height="24" viewBox="0 0 24 24" fill="none" xmlns="http://www.w3.org/2000/svg">
<g clip-path="url(#clip0_3_388)">
<path d="M8.09235 8.51908C7.97188 8.65006 7.91796 8.84074 7.98914 9.02568L12.0443 20.3328C12.1154 20.5176 12.2978 20.6603 12.511 20.663C12.7253 20.6659 12.9069 20.5318 12.9864 20.3527L14.3065 17.3807L18.7179 21.395C18.9403 21.5848 19.2539 21.5709 19.4331 21.375L21.5777 19.1689C21.6269 19.1284 21.6495 19.077 21.6722 19.026C21.7517 18.8469 21.7035 18.6107 21.5586 18.4541L17.3271 14.2441L20.4311 12.4331C20.6026 12.3248 20.7181 12.1317 20.6845 11.9323C20.6499 11.7326 20.5056 11.5761 20.3152 11.5225L8.62656 8.35565C8.46105 8.31348 8.25165 8.37333 8.09235 8.51908ZM10.12 6.71836C9.89156 6.95473 9.92004 7.3056 10.1308 7.52141C10.3671 7.74965 10.7181 7.72113 10.9339 7.51052L12.7804 5.63151C12.8291 5.59204 12.8633 5.51465 12.886 5.46362C12.9885 5.23263 12.9403 4.99655 12.7695 4.82846C12.5333 4.60016 12.1823 4.62876 11.9665 4.83935L10.12 6.71836ZM4.47106 12.6712C4.24287 12.9076 4.27167 13.2576 4.48235 13.4734C4.71872 13.7018 5.06959 13.6733 5.2854 13.4625L7.25059 11.4535C7.29927 11.414 7.33349 11.3366 7.35615 11.2856C7.44661 11.0816 7.40955 10.8203 7.23891 10.6522C7.01656 10.4624 6.65128 10.4532 6.43546 10.664L4.47106 12.6712ZM8.42278 3.08155C8.10992 3.096 7.87101 3.35803 7.8853 3.67095L7.99238 6.26382C8.00691 6.5765 8.26818 6.81501 8.58089 6.80091C8.79512 6.80386 8.98825 6.64376 9.06786 6.46476C9.10163 6.38873 9.11106 6.30049 9.11927 6.21191L9.01308 3.61943C8.99878 3.30642 8.73679 3.06769 8.42278 3.08155ZM3.09185 8.8743C2.77899 8.88875 2.56506 9.16188 2.57935 9.47479C2.59377 9.78768 2.86731 10.0007 3.18025 9.9864L5.98053 9.7588C6.20632 9.73573 6.38791 9.60164 6.4675 9.42265C6.50126 9.34666 6.53564 9.2694 6.51891 9.16979C6.50461 8.85681 6.23051 8.64266 5.89252 8.6458L3.09185 8.8743ZM4.38365 4.99645C4.15533 5.23275 4.18392 5.58367 4.39454 5.7995L6.16852 7.53848C6.4048 7.76647 6.75493 7.73769 6.97068 7.52719C7.01936 7.48772 7.05358 7.41032 7.07624 7.3593C7.16686 7.15522 7.13026 6.89315 6.95939 6.72503L5.1867 4.98556C4.95034 4.75718 4.59947 4.78568 4.38365 4.99645Z" fill="#2D0F00"/>
</g>
<defs>
<clipPath id="clip0_3_388">
<rect width="24" height="24" fill="white"/>
</clipPath>
</defs>
</svg>
