<svg width="16" height="16" viewBox="0 0 16 16" fill="none" xmlns="http://www.w3.org/2000/svg">
<g clip-path="url(#clip0_3_528)">
<path fill-rule="evenodd" clip-rule="evenodd" d="M10.1212 2.48835C11.2538 1.35577 13.0901 1.35577 14.2226 2.48835C15.3552 3.62093 15.3552 5.4572 14.2226 6.58977L8.34773 12.4647C8.01208 12.8004 7.8145 12.9979 7.59469 13.1694C7.33561 13.3715 7.05528 13.5447 6.75867 13.6861C6.50702 13.806 6.24192 13.8944 5.79157 14.0445L3.72838 14.7322L3.23159 14.8978C2.82865 15.0321 2.38441 14.9272 2.08408 14.6269C1.78375 14.3266 1.67888 13.8823 1.81319 13.4794L2.66651 10.9194C2.81661 10.4691 2.90497 10.204 3.0249 9.95231C3.16626 9.6557 3.33951 9.37538 3.54159 9.11629C3.71304 8.89648 3.91064 8.69889 4.24633 8.36323L10.1212 2.48835ZM3.70694 13.76L5.46689 13.1734C5.95689 13.0101 6.16507 12.9398 6.35897 12.8474C6.59467 12.7351 6.81743 12.5974 7.0233 12.4368C7.19267 12.3047 7.3486 12.1499 7.71382 11.7847L12.4021 7.09641C11.9137 6.92413 11.2844 6.60479 10.6953 6.01569C10.1062 5.4266 9.78686 4.79732 9.61458 4.30886L4.92627 8.99716C4.56106 9.36238 4.40626 9.51831 4.27416 9.68768C4.11358 9.89356 3.97591 10.1163 3.86358 10.352C3.77117 10.5459 3.70093 10.7541 3.5376 11.2441L2.95095 13.004L3.70694 13.76ZM10.3682 3.55527C10.3893 3.66364 10.4251 3.81095 10.4849 3.98315C10.6194 4.37085 10.8735 4.88 11.3522 5.35875C11.831 5.8375 12.3401 6.09158 12.7278 6.22609C12.9 6.28583 13.0473 6.32163 13.1557 6.34282L13.5657 5.93283C14.3355 5.16307 14.3355 3.91505 13.5657 3.14529C12.7959 2.37553 11.5479 2.37553 10.7781 3.14529L10.3682 3.55527Z" fill="#1C274C"/>
</g>
<defs>
<clipPath id="clip0_3_528">
<rect width="14.8649" height="14.8649" fill="white" transform="translate(0.981445 0.864746)"/>
</clipPath>
</defs>
</svg>
